<?xml version="1.0" encoding="utf-8"?>
<!-- Generator: Adobe Illustrator 23.0.3, SVG Export Plug-In . SVG Version: 6.00 Build 0)  -->
<svg version="1.1" id="Layer_1" xmlns="http://www.w3.org/2000/svg" xmlns:xlink="http://www.w3.org/1999/xlink" x="0px" y="0px"
	 viewBox="0 0 32.7 32.7" style="enable-background:new 0 0 32.7 32.7;" xml:space="preserve">
<style type="text/css">
	.st0{fill:#FF3008;}
	.st1{fill:#FFFFFF;}
</style>
<rect class="st0" width="32.7" height="32.7"/>
<path class="st1" d="M28.7,12.3c-1.2-2.2-3.5-3.5-6-3.5h-19C3.4,8.8,3.2,9,3.1,9.2C2.9,9.5,3,9.7,3.2,9.9L7.3,14
	c0.3,0.3,0.8,0.6,1.3,0.6H22c0.9,0,1.8,0.8,1.8,1.7c0,0.9-0.8,1.7-1.7,1.8h-9.2c-0.3,0-0.5,0.2-0.6,0.4c-0.1,0.3-0.1,0.5,0.2,0.7
	l4.1,4.1c0.3,0.3,0.8,0.6,1.3,0.6h4.2C27.6,23.8,31.7,18.1,28.7,12.3"/>
</svg>
